<?xml version="1.0" standalone="no"?>
<!DOCTYPE svg PUBLIC "-//W3C//DTD SVG 20010904//EN"
 "http://www.w3.org/TR/2001/REC-SVG-20010904/DTD/svg10.dtd">
<svg version="1.0" xmlns="http://www.w3.org/2000/svg"
 width="1280.000000pt" height="640.000000pt" viewBox="0 0 1280.000000 640.000000"
 preserveAspectRatio="xMidYMid meet">
<metadata>
Created by potrace 1.15, written by Peter Selinger 2001-2017
</metadata>
<g transform="translate(0.000000,640.000000) scale(0.100000,-0.100000)"
fill="#000000" stroke="none">
<path d="M10249 5963 l-86 -88 10 -75 c26 -184 -46 -430 -196 -670 -105 -167
-130 -194 -336 -354 -109 -85 -207 -158 -217 -163 -24 -13 -173 -48 -284 -68
-134 -23 -508 -46 -700 -43 l-175 3 -89 -37 c-179 -75 -317 -179 -383 -289
-40 -68 -84 -217 -85 -289 0 -42 212 -1606 236 -1741 l5 -26 -87 1 c-78 1 -92
-2 -133 -26 -31 -18 -54 -42 -70 -72 -20 -38 -27 -45 -44 -39 -35 12 -297 5
-390 -11 -84 -14 -99 -14 -235 5 -502 70 -971 192 -1407 365 l-162 65 -80 -41
c-44 -22 -85 -40 -91 -40 -5 0 -10 21 -10 48 l0 47 74 38 c81 42 152 109 161
154 4 15 11 38 17 50 27 55 -15 131 -149 273 -59 63 -65 73 -69 122 -5 51 7
113 36 184 13 30 13 30 -85 125 -220 211 -396 432 -443 554 -24 64 -59 82
-174 91 l-86 7 -103 -55 c-332 -176 -541 -344 -658 -532 -133 -214 -145 -360
-35 -438 l35 -25 -90 -36 -89 -36 -174 60 c-95 33 -276 96 -403 139 l-230 79
-870 52 c-478 28 -897 49 -930 46 -71 -5 -240 -74 -269 -109 -16 -20 -18 -35
-13 -119 l5 -97 -92 1 c-122 2 -179 -18 -256 -90 -39 -36 -70 -76 -89 -116
-19 -41 -71 -226 -147 -531 l-117 -468 17 -33 c53 -98 342 -239 861 -420 213
-74 324 -101 535 -129 364 -48 654 -60 1250 -53 488 6 593 10 1085 43 l251 17
61 -32 c70 -35 260 -91 494 -145 120 -28 202 -40 350 -51 107 -8 256 -21 332
-30 77 -8 236 -19 355 -25 202 -10 1154 -77 2917 -204 528 -38 738 -50 760
-43 46 15 93 54 114 95 10 20 140 399 289 842 149 443 274 816 279 829 9 23
12 19 44 -49 272 -592 528 -1134 535 -1136 5 -1 21 -5 36 -8 23 -5 36 -22 72
-94 90 -178 132 -335 150 -551 l11 -136 345 -17 c190 -9 435 -21 545 -27 110
-6 333 -15 495 -21 162 -6 359 -13 437 -17 l141 -6 21 41 c46 90 20 122 -119
146 -135 24 -447 104 -710 182 -124 36 -235 69 -248 73 -56 16 -255 242 -352
401 -51 84 -140 260 -140 277 0 5 120 95 268 201 147 105 275 197 286 205 17
12 -25 88 -674 1201 l-693 1189 1 62 c1 75 27 155 86 274 48 94 157 263 246
381 54 73 57 79 78 190 28 152 45 286 40 315 -3 13 -79 136 -169 273 l-164
250 -72 21 c-39 12 -79 21 -89 21 -10 0 -57 -39 -105 -87z m-810 -2035 c-35
-66 -338 -445 -471 -588 -168 -182 -186 -193 -220 -134 -18 31 -59 181 -71
257 -5 35 -2 42 36 80 51 51 152 119 284 189 110 60 434 218 446 218 4 0 2
-10 -4 -22z m-5080 -1610 c11 -24 40 -87 65 -141 63 -134 41 -126 -96 33
l-108 125 58 11 c31 7 58 12 60 13 1 1 11 -18 21 -41z"/>
</g>
</svg>
