<?xml version="1.0" standalone="no"?>
<!DOCTYPE svg PUBLIC "-//W3C//DTD SVG 20010904//EN"
 "http://www.w3.org/TR/2001/REC-SVG-20010904/DTD/svg10.dtd">
<svg version="1.0" xmlns="http://www.w3.org/2000/svg"
 width="940.000000pt" height="1280.000000pt" viewBox="0 0 940.000000 1280.000000"
 preserveAspectRatio="xMidYMid meet">
<metadata>
Created by potrace 1.15, written by Peter Selinger 2001-2017
</metadata>
<g transform="translate(0.000000,1280.000000) scale(0.100000,-0.100000)"
fill="#000000" stroke="none">
<path d="M7375 12763 c-107 -58 -194 -150 -248 -264 -43 -90 -77 -206 -77
-265 0 -47 -35 -72 -160 -111 -94 -30 -122 -43 -153 -73 -60 -60 -37 -83 107
-104 52 -8 103 -19 114 -25 27 -14 47 -91 34 -129 -5 -16 -30 -59 -55 -95 -40
-58 -67 -119 -67 -152 0 -6 29 -40 64 -77 127 -132 193 -335 155 -471 l-10
-38 74 -78 c98 -102 121 -159 115 -281 -4 -77 -8 -95 -50 -180 -27 -55 -106
-179 -189 -295 -150 -211 -215 -313 -311 -487 -151 -277 -307 -670 -398 -1003
-12 -44 -26 -84 -31 -89 -14 -15 -114 60 -163 122 -24 30 -81 119 -126 197
-45 79 -105 172 -131 208 l-49 65 -94 7 c-100 8 -164 2 -262 -22 -65 -16 -69
-20 -113 -125 -26 -62 -51 -184 -51 -248 0 -27 -2 -50 -5 -50 -3 0 -155 114
-338 253 -182 139 -496 376 -697 527 -1489 1117 -2289 1742 -2940 2299 -280
239 -272 230 -150 173 406 -189 726 -415 794 -562 l23 -49 23 24 c42 45 80 27
80 -39 l0 -39 23 21 c13 13 36 22 53 22 23 0 222 -129 844 -546 1247 -835
1665 -1103 2226 -1430 316 -183 258 -143 -446 306 -977 624 -1098 702 -1405
905 -373 248 -666 450 -958 661 -230 166 -234 170 -230 200 8 52 -60 97 -95
62 -18 -18 -15 -25 17 -31 28 -6 49 -34 34 -47 -15 -14 -548 316 -840 519
l-152 106 -1 68 c0 90 -18 90 -64 -1 -30 -60 -44 -69 -78 -51 l-23 13 31 8
c36 9 72 45 58 57 -5 4 -38 18 -74 31 -104 36 -245 113 -385 209 -336 233
-403 276 -479 311 -44 21 -94 41 -111 45 l-30 6 36 -33 c20 -18 103 -96 185
-173 300 -283 395 -361 1169 -965 292 -228 690 -540 885 -695 481 -381 594
-467 1190 -913 832 -622 1046 -793 1458 -1166 201 -182 288 -298 300 -401 6
-55 28 -62 106 -35 l57 19 9 -25 c6 -14 10 -32 10 -40 0 -34 57 -132 101 -175
62 -61 152 -105 349 -174 91 -32 193 -71 228 -87 53 -25 62 -33 62 -56 0 -32
-22 -162 -84 -507 -91 -501 -111 -687 -103 -938 8 -248 42 -360 137 -459 l46
-48 180 0 c164 1 213 5 284 24 24 7 27 3 62 -86 104 -267 160 -495 298 -1218
45 -234 99 -501 121 -595 133 -567 287 -924 509 -1180 49 -56 60 -74 55 -95
-15 -74 -36 -256 -46 -415 -9 -140 -9 -275 1 -614 l13 -433 -46 -39 c-25 -22
-84 -91 -131 -153 -110 -148 -181 -205 -293 -235 -22 -6 -133 -15 -246 -20
-195 -7 -208 -9 -261 -35 -57 -28 -96 -76 -110 -138 -13 -58 131 -139 325
-182 64 -14 124 -26 132 -26 26 0 47 -54 51 -128 l3 -67 79 -32 c213 -86 500
-143 874 -173 74 -7 367 -14 651 -17 l517 -6 41 84 c22 46 49 113 58 149 23
90 21 296 -5 535 -12 105 -28 267 -37 360 -21 219 -33 312 -99 760 -84 567
-105 742 -131 1075 -25 319 -37 397 -126 805 -32 149 -66 326 -75 395 -29 218
-5 426 82 705 162 524 174 580 182 805 l5 165 94 90 c126 120 156 179 133 267
-6 23 -26 66 -44 93 -78 120 -94 183 -65 256 53 136 48 301 -16 530 l-35 126
39 84 c362 785 287 2176 -165 3060 -62 122 -171 289 -238 367 -25 30 -46 63
-46 75 0 12 -9 51 -20 85 -11 35 -20 84 -20 108 l0 45 -75 34 c-41 19 -78 41
-81 50 -4 9 7 46 24 83 69 154 102 287 162 656 l43 260 -22 60 c-92 257 -314
451 -631 551 -175 55 -303 77 -485 81 l-170 5 -70 -38z m-6836 -373 c172 -91
368 -239 402 -302 9 -17 4 -16 -43 8 -74 37 -154 93 -256 178 -48 40 -116 94
-151 119 -35 26 -59 47 -55 47 5 0 51 -23 103 -50z"/>
</g>
</svg>
