<?xml version="1.0" standalone="no"?>
<!DOCTYPE svg PUBLIC "-//W3C//DTD SVG 20010904//EN"
 "http://www.w3.org/TR/2001/REC-SVG-20010904/DTD/svg10.dtd">
<svg version="1.0" xmlns="http://www.w3.org/2000/svg"
 width="1280.000000pt" height="914.000000pt" viewBox="0 0 1280.000000 914.000000"
 preserveAspectRatio="xMidYMid meet">
<metadata>
Created by potrace 1.15, written by Peter Selinger 2001-2017
</metadata>
<g transform="translate(0.000000,914.000000) scale(0.100000,-0.100000)"
fill="#000000" stroke="none">
<path d="M7457 9054 c-3 -3 -12 -6 -19 -8 -8 -1 -54 -24 -101 -50 -57 -32 -87
-55 -87 -66 0 -10 -7 -35 -16 -55 -11 -28 -14 -54 -9 -99 9 -84 21 -113 53
-121 15 -4 50 -23 77 -44 28 -21 60 -43 72 -50 20 -10 22 -17 18 -79 -2 -37
-7 -132 -10 -212 -3 -80 -7 -197 -10 -260 -3 -63 -7 -167 -10 -230 -2 -63 -8
-185 -12 -270 -3 -85 -6 -172 -5 -192 2 -36 1 -38 -28 -38 -20 0 -30 -5 -30
-15 0 -8 -18 -24 -39 -35 -47 -23 -57 -36 -42 -54 6 -7 14 -35 17 -62 4 -27
13 -54 21 -61 12 -9 12 -15 1 -32 -13 -22 -11 -26 27 -46 6 -3 5 -7 -2 -11
-18 -8 -16 -41 3 -48 22 -8 9 -65 -21 -88 -28 -22 -105 -159 -105 -186 0 -11
-7 -33 -15 -48 -8 -16 -15 -44 -15 -62 0 -18 -4 -41 -9 -51 -11 -19 -25 -152
-21 -191 3 -30 3 -91 -1 -140 -5 -72 20 -251 40 -289 6 -11 11 -28 11 -37 0
-10 18 -54 40 -99 32 -64 51 -88 92 -120 47 -35 59 -40 108 -40 66 1 143 42
170 92 9 17 24 43 34 58 23 35 56 129 65 185 4 25 10 51 15 58 4 7 9 36 12 65
10 117 15 193 14 207 -1 8 -3 51 -5 95 -4 104 -18 194 -34 223 -6 12 -9 26 -6
31 7 13 -53 162 -76 187 -24 26 -24 44 -1 44 11 0 27 9 36 19 17 18 17 20 -3
40 -17 17 -19 25 -11 41 8 16 6 23 -9 37 -14 11 -19 24 -15 39 3 12 0 33 -7
46 -7 12 -12 37 -10 55 2 24 -2 33 -18 38 -19 6 -19 8 -6 21 21 21 19 41 -5
54 -17 9 -18 14 -7 31 10 17 9 23 -12 40 -13 10 -31 19 -41 19 -21 0 -21 -19
6 630 5 122 9 204 19 480 2 47 3 88 4 92 1 4 14 5 29 2 41 -8 103 11 159 50
l48 33 79 -12 78 -12 88 -89 c49 -49 259 -266 468 -482 l380 -393 6 -72 c7
-98 38 -4449 31 -4455 -3 -3 -362 16 -797 43 l-793 48 -2085 -41 c-1147 -23
-2167 -44 -2267 -48 l-183 -6 -2 -192 -3 -191 -25 -2 c-14 -1 -77 -5 -141 -8
l-117 -7 -4 -168 c-2 -93 -7 -172 -11 -176 -4 -5 -173 -16 -375 -25 -202 -9
-367 -17 -368 -18 0 0 -4 -80 -7 -177 -3 -97 -7 -178 -9 -179 -2 -2 -93 -8
-203 -14 -110 -6 -232 -14 -271 -17 l-71 -5 -5 -180 c-3 -98 -7 -181 -9 -184
-3 -2 -151 -13 -329 -25 -179 -11 -349 -23 -377 -26 l-53 -5 0 -189 0 -189
226 -200 c194 -172 229 -200 252 -196 15 3 856 77 1869 166 l1841 161 874
-346 c480 -190 884 -346 898 -346 34 -1 6344 712 6349 717 5 3 -28 1786 -32
1789 -1 1 -748 46 -1661 102 -912 55 -1660 103 -1662 105 -5 5 -19 1240 -39
3527 -8 965 -16 1845 -18 1955 l-2 200 -265 46 c-146 26 -272 49 -280 53 -8 3
-208 39 -443 80 -426 73 -428 74 -459 105 -31 32 -33 32 -153 37 -22 1 -56 4
-75 7 -62 10 -157 17 -163 11z m1023 -590 c47 -9 153 -28 235 -43 l150 -26 3
-220 2 -220 -213 220 c-260 268 -293 305 -276 305 8 0 52 -7 99 -16z m-950
-1722 c40 -60 84 -186 95 -272 2 -19 9 -71 14 -115 6 -44 11 -84 12 -90 3 -26
-23 -263 -32 -289 -5 -16 -9 -42 -9 -58 0 -16 -6 -39 -14 -51 -8 -12 -17 -37
-21 -55 -14 -66 -83 -156 -128 -167 -40 -10 -96 36 -128 104 -34 75 -59 153
-59 184 0 14 -5 38 -11 54 -6 15 -12 51 -14 78 -1 28 -5 74 -9 103 -8 74 29
367 52 409 7 12 12 32 12 45 0 13 11 39 25 58 14 19 25 39 25 46 0 22 31 47
43 35 6 -6 28 -11 49 -11 31 0 38 4 38 19 0 30 31 16 60 -27z"/>
</g>
</svg>
